<svg id="SVGID" width="100%" xmlns="http://www.w3.org/2000/svg" style="max-width: 1927.5px;" viewBox="-8 -8 1927.5 325.68731689453125" role="graphics-document document" aria-roledescription="flowchart-v2"><style>#SVGID{font-family:"trebuchet ms",verdana,arial,sans-serif;font-size:16px;fill:#000000;}#SVGID .error-icon{fill:#552222;}#SVGID .error-text{fill:#552222;stroke:#552222;}#SVGID .edge-thickness-normal{stroke-width:2px;}#SVGID .edge-thickness-thick{stroke-width:3.5px;}#SVGID .edge-pattern-solid{stroke-dasharray:0;}#SVGID .edge-pattern-dashed{stroke-dasharray:3;}#SVGID .edge-pattern-dotted{stroke-dasharray:2;}#SVGID .marker{fill:#666;stroke:#666;}#SVGID .marker.cross{stroke:#666;}#SVGID svg{font-family:"trebuchet ms",verdana,arial,sans-serif;font-size:16px;}#SVGID .label{font-family:"trebuchet ms",verdana,arial,sans-serif;color:#000000;}#SVGID .cluster-label text{fill:#333;}#SVGID .cluster-label span,#SVGID p{color:#333;}#SVGID .label text,#SVGID span,#SVGID p{fill:#000000;color:#000000;}#SVGID .node rect,#SVGID .node circle,#SVGID .node ellipse,#SVGID .node polygon,#SVGID .node path{fill:#eee;stroke:#999;stroke-width:1px;}#SVGID .flowchart-label text{text-anchor:middle;}#SVGID .node .katex path{fill:#000;stroke:#000;stroke-width:1px;}#SVGID .node .label{text-align:center;}#SVGID .node.clickable{cursor:pointer;}#SVGID .arrowheadPath{fill:#333333;}#SVGID .edgePath .path{stroke:#666;stroke-width:2.0px;}#SVGID .flowchart-link{stroke:#666;fill:none;}#SVGID .edgeLabel{background-color:white;text-align:center;}#SVGID .edgeLabel rect{opacity:0.5;background-color:white;fill:white;}#SVGID .labelBkg{background-color:rgba(255, 255, 255, 0.5);}#SVGID .cluster rect{fill:hsl(0, 0%, 98.9215686275%);stroke:#707070;stroke-width:1px;}#SVGID .cluster text{fill:#333;}#SVGID .cluster span,#SVGID p{color:#333;}#SVGID div.mermaidTooltip{position:absolute;text-align:center;max-width:200px;padding:2px;font-family:"trebuchet ms",verdana,arial,sans-serif;font-size:12px;background:hsl(-160, 0%, 93.3333333333%);border:1px solid #707070;border-radius:2px;pointer-events:none;z-index:100;}#SVGID .flowchartTitleText{text-anchor:middle;font-size:18px;fill:#000000;}#SVGID :root{--mermaid-font-family:"trebuchet ms",verdana,arial,sans-serif;}</style><g><marker id="SVGID_flowchart-pointEnd" class="marker flowchart" viewBox="0 0 10 10" refX="6" refY="5" markerUnits="userSpaceOnUse" markerWidth="12" markerHeight="12" orient="auto"><path d="M 0 0 L 10 5 L 0 10 z" class="arrowMarkerPath" style="stroke-width: 1px; stroke-dasharray: 1px, 0px;"></path></marker><marker id="SVGID_flowchart-pointStart" class="marker flowchart" viewBox="0 0 10 10" refX="4.5" refY="5" markerUnits="userSpaceOnUse" markerWidth="12" markerHeight="12" orient="auto"><path d="M 0 5 L 10 10 L 10 0 z" class="arrowMarkerPath" style="stroke-width: 1px; stroke-dasharray: 1px, 0px;"></path></marker><marker id="SVGID_flowchart-circleEnd" class="marker flowchart" viewBox="0 0 10 10" refX="11" refY="5" markerUnits="userSpaceOnUse" markerWidth="11" markerHeight="11" orient="auto"><circle cx="5" cy="5" r="5" class="arrowMarkerPath" style="stroke-width: 1px; stroke-dasharray: 1px, 0px;"></circle></marker><marker id="SVGID_flowchart-circleStart" class="marker flowchart" viewBox="0 0 10 10" refX="-1" refY="5" markerUnits="userSpaceOnUse" markerWidth="11" markerHeight="11" orient="auto"><circle cx="5" cy="5" r="5" class="arrowMarkerPath" style="stroke-width: 1px; stroke-dasharray: 1px, 0px;"></circle></marker><marker id="SVGID_flowchart-crossEnd" class="marker cross flowchart" viewBox="0 0 11 11" refX="12" refY="5.2" markerUnits="userSpaceOnUse" markerWidth="11" markerHeight="11" orient="auto"><path d="M 1,1 l 9,9 M 10,1 l -9,9" class="arrowMarkerPath" style="stroke-width: 2px; stroke-dasharray: 1px, 0px;"></path></marker><marker id="SVGID_flowchart-crossStart" class="marker cross flowchart" viewBox="0 0 11 11" refX="-1" refY="5.2" markerUnits="userSpaceOnUse" markerWidth="11" markerHeight="11" orient="auto"><path d="M 1,1 l 9,9 M 10,1 l -9,9" class="arrowMarkerPath" style="stroke-width: 2px; stroke-dasharray: 1px, 0px;"></path></marker><g class="root"><g class="clusters"></g><g class="edgePaths"><path d="M1004.388,19.024L851.983,27.27C699.578,35.516,394.768,52.008,242.363,67.569C89.958,83.13,89.958,97.76,89.958,105.075L89.958,112.39" id="L-backend-controllers-0" class=" edge-thickness-normal edge-pattern-solid flowchart-link LS-backend LE-controllers" style="fill:none;" marker-end="url(#SVGID_flowchart-pointEnd)"></path><path d="M89.958,151.69L89.958,159.888C89.958,168.086,89.958,184.483,89.958,200.907C89.958,217.331,89.958,233.782,89.958,242.008L89.958,250.233" id="L-controllers-engagement_controller-0" class=" edge-thickness-normal edge-pattern-solid flowchart-link LS-controllers LE-engagement_controller" style="fill:none;" marker-end="url(#SVGID_flowchart-pointEnd)"></path><path d="M1004.388,19.839L897.49,27.949C790.593,36.059,576.799,52.28,469.901,67.705C363.004,83.13,363.004,97.76,363.004,105.075L363.004,112.39" id="L-backend-models-0" class=" edge-thickness-normal edge-pattern-solid flowchart-link LS-backend LE-models" style="fill:none;" marker-end="url(#SVGID_flowchart-pointEnd)"></path><path d="M334.839,151.69L321.256,159.888C307.673,168.086,280.507,184.483,266.925,199.203C253.342,213.923,253.342,226.967,253.342,233.488L253.342,240.01" id="L-models-user_model-0" class=" edge-thickness-normal edge-pattern-solid flowchart-link LS-models LE-user_model" style="fill:none;" marker-end="url(#SVGID_flowchart-pointEnd)"></path><path d="M359.422,151.69L357.695,159.888C355.968,168.086,352.513,184.483,350.786,199.264C349.058,214.045,349.058,227.21,349.058,233.792L349.058,240.375" id="L-models-post_model-0" class=" edge-thickness-normal edge-pattern-solid flowchart-link LS-models LE-post_model" style="fill:none;" marker-end="url(#SVGID_flowchart-pointEnd)"></path><path d="M391.17,151.69L404.752,159.888C418.335,168.086,445.501,184.483,459.084,198.089C472.667,211.695,472.667,222.51,472.667,227.918L472.667,233.326" id="L-models-engagement_model-0" class=" edge-thickness-normal edge-pattern-solid flowchart-link LS-models LE-engagement_model" style="fill:none;" marker-end="url(#SVGID_flowchart-pointEnd)"></path><path d="M1004.388,24.005L964.776,31.421C925.164,38.837,845.94,53.668,806.328,68.399C766.717,83.13,766.717,97.76,766.717,105.075L766.717,112.39" id="L-backend-migrations-0" class=" edge-thickness-normal edge-pattern-solid flowchart-link LS-backend LE-migrations" style="fill:none;" marker-end="url(#SVGID_flowchart-pointEnd)"></path><path d="M729.531,151.69L711.598,159.888C693.665,168.086,657.799,184.483,639.866,198.194C621.933,211.904,621.933,222.929,621.933,228.441L621.933,233.953" id="L-migrations-users_table-0" class=" edge-thickness-normal edge-pattern-solid flowchart-link LS-migrations LE-users_table" style="fill:none;" marker-end="url(#SVGID_flowchart-pointEnd)"></path><path d="M766.717,151.69L766.717,159.888C766.717,168.086,766.717,184.483,766.717,198.23C766.717,211.976,766.717,223.073,766.717,228.622L766.717,234.17" id="L-migrations-posts_table-0" class=" edge-thickness-normal edge-pattern-solid flowchart-link LS-migrations LE-posts_table" style="fill:none;" marker-end="url(#SVGID_flowchart-pointEnd)"></path><path d="M810.238,151.69L831.226,159.888C852.214,168.086,894.19,184.483,915.179,197.548C936.167,210.613,936.167,220.346,936.167,225.213L936.167,230.08" id="L-migrations-engagement_table-0" class=" edge-thickness-normal edge-pattern-solid flowchart-link LS-migrations LE-engagement_table" style="fill:none;" marker-end="url(#SVGID_flowchart-pointEnd)"></path><path d="M1079.221,24.005L1118.833,31.421C1158.444,38.837,1237.668,53.668,1277.28,68.399C1316.892,83.13,1316.892,97.76,1316.892,105.075L1316.892,112.39" id="L-backend-routes-0" class=" edge-thickness-normal edge-pattern-solid flowchart-link LS-backend LE-routes" style="fill:none;" marker-end="url(#SVGID_flowchart-pointEnd)"></path><path d="M1285.608,146.178L1260.782,155.295C1235.956,164.412,1186.303,182.646,1161.552,200.072C1136.801,217.498,1136.951,234.116,1137.027,242.425L1137.102,250.734" id="L-routes-api_engagement-0" class=" edge-thickness-normal edge-pattern-solid flowchart-link LS-routes LE-api_engagement" style="fill:none;" marker-end="url(#SVGID_flowchart-pointEnd)"></path><path d="M1316.892,151.69L1316.892,159.888C1316.892,168.086,1316.892,184.483,1316.967,200.99C1317.042,217.498,1317.193,234.116,1317.268,242.425L1317.344,250.734" id="L-routes-api_posts-0" class=" edge-thickness-normal edge-pattern-solid flowchart-link LS-routes LE-api_posts" style="fill:none;" marker-end="url(#SVGID_flowchart-pointEnd)"></path><path d="M1348.175,148.077L1368.74,156.877C1389.306,165.678,1430.436,183.279,1451.077,200.388C1471.717,217.498,1471.868,234.116,1471.943,242.425L1472.019,250.734" id="L-routes-api_users-0" class=" edge-thickness-normal edge-pattern-solid flowchart-link LS-routes LE-api_users" style="fill:none;" marker-end="url(#SVGID_flowchart-pointEnd)"></path><path d="M1079.221,19.791L1188.063,27.909C1296.906,36.027,1514.59,52.264,1623.433,67.697C1732.275,83.13,1732.275,97.76,1732.275,105.075L1732.275,112.39" id="L-backend-middleware-0" class=" edge-thickness-normal edge-pattern-solid flowchart-link LS-backend LE-middleware" style="fill:none;" marker-end="url(#SVGID_flowchart-pointEnd)"></path><path d="M1708.997,151.69L1697.771,159.888C1686.545,168.086,1664.093,184.483,1652.868,200.907C1641.642,217.331,1641.642,233.782,1641.642,242.008L1641.642,250.233" id="L-middleware-auth_middleware-0" class=" edge-thickness-normal edge-pattern-solid flowchart-link LS-middleware LE-auth_middleware" style="fill:none;" marker-end="url(#SVGID_flowchart-pointEnd)"></path><path d="M1755.553,151.69L1766.779,159.888C1778.005,168.086,1800.457,184.483,1811.682,200.907C1822.908,217.331,1822.908,233.782,1822.908,242.008L1822.908,250.233" id="L-middleware-log_middleware-0" class=" edge-thickness-normal edge-pattern-solid flowchart-link LS-middleware LE-log_middleware" style="fill:none;" marker-end="url(#SVGID_flowchart-pointEnd)"></path><path d="M1079.221,19.323L1211.226,27.519C1343.231,35.715,1607.24,52.108,1739.245,65.171C1871.25,78.233,1871.25,87.967,1871.25,92.833L1871.25,97.7" id="L-backend-database-0" class=" edge-thickness-normal edge-pattern-solid flowchart-link LS-backend LE-database" style="fill:none;" marker-end="url(#SVGID_flowchart-pointEnd)"></path></g><g class="edgeLabels"><g class="edgeLabel" transform="translate(89.95833587646484, 68.5)"><g class="label" transform="translate(-11.816666603088379, -9.5)"><rect rx="0" ry="0" width="30.84917640686035" height="18.28099250793457"></rect><text style=""><tspan xml:space="preserve" dy="1em" x="0" class="row">has</tspan></text></g></g><g class="edgeLabel" transform="translate(89.95833587646484, 200.87955856323242)"><g class="label" transform="translate(-31.04166603088379, -9.5)"><rect rx="0" ry="0" width="68.55372619628906" height="18.28099250793457"></rect><text style=""><tspan xml:space="preserve" dy="1em" x="0" class="row">manages</tspan></text></g></g><g class="edgeLabel" transform="translate(363.00417137145996, 68.5)"><g class="label" transform="translate(-11.816666603088379, -9.5)"><rect rx="0" ry="0" width="30.84917640686035" height="18.28099250793457"></rect><text style=""><tspan xml:space="preserve" dy="1em" x="0" class="row">has</tspan></text></g></g><g class="edgeLabel" transform="translate(253.34167098999023, 200.87955856323242)"><g class="label" transform="translate(-29.41666603088379, -9.5)"><rect rx="0" ry="0" width="66.26860046386719" height="18.28099250793457"></rect><text style=""><tspan xml:space="preserve" dy="1em" x="0" class="row">includes</tspan></text></g></g><g class="edgeLabel" transform="translate(349.0583381652832, 200.87955856323242)"><g class="label" transform="translate(-29.41666603088379, -9.5)"><rect rx="0" ry="0" width="66.26860046386719" height="18.28099250793457"></rect><text style=""><tspan xml:space="preserve" dy="1em" x="0" class="row">includes</tspan></text></g></g><g class="edgeLabel" transform="translate(472.6666717529297, 200.87955856323242)"><g class="label" transform="translate(-29.41666603088379, -9.5)"><rect rx="0" ry="0" width="66.26860046386719" height="18.28099250793457"></rect><text style=""><tspan xml:space="preserve" dy="1em" x="0" class="row">includes</tspan></text></g></g><g class="edgeLabel" transform="translate(766.7166709899902, 68.5)"><g class="label" transform="translate(-11.816666603088379, -9.5)"><rect rx="0" ry="0" width="30.84917640686035" height="18.28099250793457"></rect><text style=""><tspan xml:space="preserve" dy="1em" x="0" class="row">has</tspan></text></g></g><g class="edgeLabel" transform="translate(621.9333381652832, 200.87955856323242)"><g class="label" transform="translate(-29.41666603088379, -9.5)"><rect rx="0" ry="0" width="66.26860046386719" height="18.28099250793457"></rect><text style=""><tspan xml:space="preserve" dy="1em" x="0" class="row">includes</tspan></text></g></g><g class="edgeLabel" transform="translate(766.7166709899902, 200.87955856323242)"><g class="label" transform="translate(-29.41666603088379, -9.5)"><rect rx="0" ry="0" width="66.26860046386719" height="18.28099250793457"></rect><text style=""><tspan xml:space="preserve" dy="1em" x="0" class="row">includes</tspan></text></g></g><g class="edgeLabel" transform="translate(936.1666717529297, 200.87955856323242)"><g class="label" transform="translate(-29.41666603088379, -9.5)"><rect rx="0" ry="0" width="66.26860046386719" height="18.28099250793457"></rect><text style=""><tspan xml:space="preserve" dy="1em" x="0" class="row">includes</tspan></text></g></g><g class="edgeLabel" transform="translate(1316.8916664123535, 68.5)"><g class="label" transform="translate(-11.816666603088379, -9.5)"><rect rx="0" ry="0" width="30.84917640686035" height="18.28099250793457"></rect><text style=""><tspan xml:space="preserve" dy="1em" x="0" class="row">has</tspan></text></g></g><g class="edgeLabel" transform="translate(1136.650001525879, 200.87955856323242)"><g class="label" transform="translate(-26.049999237060547, -9.5)"><rect rx="0" ry="0" width="60.555789947509766" height="18.28099250793457"></rect><text style=""><tspan xml:space="preserve" dy="1em" x="0" class="row">defines</tspan></text></g></g><g class="edgeLabel" transform="translate(1316.8916664123535, 200.87955856323242)"><g class="label" transform="translate(-26.049999237060547, -9.5)"><rect rx="0" ry="0" width="60.555789947509766" height="18.28099250793457"></rect><text style=""><tspan xml:space="preserve" dy="1em" x="0" class="row">defines</tspan></text></g></g><g class="edgeLabel" transform="translate(1471.5666732788086, 200.87955856323242)"><g class="label" transform="translate(-26.049999237060547, -9.5)"><rect rx="0" ry="0" width="60.555789947509766" height="18.28099250793457"></rect><text style=""><tspan xml:space="preserve" dy="1em" x="0" class="row">defines</tspan></text></g></g><g class="edgeLabel" transform="translate(1732.275011062622, 68.5)"><g class="label" transform="translate(-15.225000381469727, -9.5)"><rect rx="0" ry="0" width="38.847110748291016" height="18.28099250793457"></rect><text style=""><tspan xml:space="preserve" dy="1em" x="0" class="row">uses</tspan></text></g></g><g class="edgeLabel" transform="translate(1641.6416778564453, 200.87955856323242)"><g class="label" transform="translate(-29.41666603088379, -9.5)"><rect rx="0" ry="0" width="66.26860046386719" height="18.28099250793457"></rect><text style=""><tspan xml:space="preserve" dy="1em" x="0" class="row">includes</tspan></text></g></g><g class="edgeLabel" transform="translate(1822.9083442687988, 200.87955856323242)"><g class="label" transform="translate(-29.41666603088379, -9.5)"><rect rx="0" ry="0" width="66.26860046386719" height="18.28099250793457"></rect><text style=""><tspan xml:space="preserve" dy="1em" x="0" class="row">includes</tspan></text></g></g><g class="edgeLabel" transform="translate(1871.2500095367432, 68.5)"><g class="label" transform="translate(-15.225000381469727, -9.5)"><rect rx="0" ry="0" width="38.847110748291016" height="18.28099250793457"></rect><text style=""><tspan xml:space="preserve" dy="1em" x="0" class="row">uses</tspan></text></g></g></g><g class="nodes"><g class="node default default flowchart-label" id="flowchart-backend-1245" data-node="true" data-id="backend" transform="translate(1041.8041687011719, 17)"><rect class="basic label-container" style="" rx="0" ry="0" x="-37.41666603088379" y="-17" width="74.83333206176758" height="34"></rect><g class="label" style="" transform="translate(0, -9.5)"><rect></rect><text style=""><tspan xml:space="preserve" dy="1em" x="0" class="row">Backend</tspan></text></g></g><g class="node default default flowchart-label" id="flowchart-controllers-1246" data-node="true" data-id="controllers" transform="translate(89.95833587646484, 134.6897792816162)"><rect class="basic label-container" style="" rx="0" ry="0" x="-46.95833206176758" y="-17" width="93.91666412353516" height="34"></rect><g class="label" style="" transform="translate(0, -9.5)"><rect></rect><text style=""><tspan xml:space="preserve" dy="1em" x="0" class="row">Controllers</tspan></text></g></g><g class="node default default flowchart-label" id="flowchart-engagement_controller-1247" data-node="true" data-id="engagement_controller" transform="translate(89.95833587646484, 272.53343963623047)"><rect class="basic label-container" style="" rx="0" ry="0" x="-89.95833587646484" y="-17" width="179.9166717529297" height="34"></rect><g class="label" style="" transform="translate(0, -9.5)"><rect></rect><text style=""><tspan xml:space="preserve" dy="1em" x="0" class="row">Engagement Controller</tspan></text></g></g><g class="node default default flowchart-label" id="flowchart-models-1248" data-node="true" data-id="models" transform="translate(363.00417137145996, 134.6897792816162)"><rect class="basic label-container" style="" rx="0" ry="0" x="-31.891666412353516" y="-17" width="63.78333282470703" height="34"></rect><g class="label" style="" transform="translate(0, -9.5)"><rect></rect><text style=""><tspan xml:space="preserve" dy="1em" x="0" class="row">Models</tspan></text></g></g><g class="node default default flowchart-label" id="flowchart-user_model-1249" label-offset-y="6.815536845719071" data-node="true" data-id="user_model" transform="translate(253.34167098999023, 272.53343963623047)"><path style="" d="M 0,6.815536845719071 a 23.425000190734863,6.815536845719071 0,0,0 46.85000038146973 0 a 23.425000190734863,6.815536845719071 0,0,0 -46.85000038146973 0 l 0,40.815536845719066 a 23.425000190734863,6.815536845719071 0,0,0 46.85000038146973 0 l 0,-40.815536845719066" transform="translate(-23.425000190734863,-27.223305268578603)"></path><g class="label" style="" transform="translate(0, -9.5)"><rect></rect><text style=""><tspan xml:space="preserve" dy="1em" x="0" class="row">User</tspan></text></g></g><g class="node default default flowchart-label" id="flowchart-post_model-1250" label-offset-y="6.572481641567964" data-node="true" data-id="post_model" transform="translate(349.0583381652832, 272.53343963623047)"><path style="" d="M 0,6.572481641567964 a 22.291666984558105,6.572481641567964 0,0,0 44.58333396911621 0 a 22.291666984558105,6.572481641567964 0,0,0 -44.58333396911621 0 l 0,40.57248164156796 a 22.291666984558105,6.572481641567964 0,0,0 44.58333396911621 0 l 0,-40.57248164156796" transform="translate(-22.291666984558105,-26.858722462351945)"></path><g class="label" style="" transform="translate(0, -9.5)"><rect></rect><text style=""><tspan xml:space="preserve" dy="1em" x="0" class="row">Post</tspan></text></g></g><g class="node default default flowchart-label" id="flowchart-engagement_model-1251" label-offset-y="11.271781983027687" data-node="true" data-id="engagement_model" transform="translate(472.6666717529297, 272.53343963623047)"><path style="" d="M 0,11.271781983027687 a 51.31666564941406,11.271781983027687 0,0,0 102.63333129882812 0 a 51.31666564941406,11.271781983027687 0,0,0 -102.63333129882812 0 l 0,45.27178198302769 a 51.31666564941406,11.271781983027687 0,0,0 102.63333129882812 0 l 0,-45.27178198302769" transform="translate(-51.31666564941406,-33.907672974541526)"></path><g class="label" style="" transform="translate(0, -9.5)"><rect></rect><text style=""><tspan xml:space="preserve" dy="1em" x="0" class="row">Engagement</tspan></text></g></g><g class="node default default flowchart-label" id="flowchart-migrations-1252" data-node="true" data-id="migrations" transform="translate(766.7166709899902, 134.6897792816162)"><rect class="basic label-container" style="" rx="0" ry="0" x="-44.150001525878906" y="-17" width="88.30000305175781" height="34"></rect><g class="label" style="" transform="translate(0, -9.5)"><rect></rect><text style=""><tspan xml:space="preserve" dy="1em" x="0" class="row">Migrations</tspan></text></g></g><g class="node default default flowchart-label" id="flowchart-users_table-1253" label-offset-y="10.853327395138567" data-node="true" data-id="users_table" transform="translate(621.9333381652832, 272.53343963623047)"><path style="" d="M 0,10.853327395138567 a 47.95000076293945,10.853327395138567 0,0,0 95.9000015258789 0 a 47.95000076293945,10.853327395138567 0,0,0 -95.9000015258789 0 l 0,44.853327395138564 a 47.95000076293945,10.853327395138567 0,0,0 95.9000015258789 0 l 0,-44.853327395138564" transform="translate(-47.95000076293945,-33.279991092707846)"></path><g class="label" style="" transform="translate(0, -9.5)"><rect></rect><text style=""><tspan xml:space="preserve" dy="1em" x="0" class="row">Users Table</tspan></text></g></g><g class="node default default flowchart-label" id="flowchart-posts_table-1254" label-offset-y="10.708841297205963" data-node="true" data-id="posts_table" transform="translate(766.7166709899902, 272.53343963623047)"><path style="" d="M 0,10.708841297205963 a 46.83333206176758,10.708841297205963 0,0,0 93.66666412353516 0 a 46.83333206176758,10.708841297205963 0,0,0 -93.66666412353516 0 l 0,44.708841297205964 a 46.83333206176758,10.708841297205963 0,0,0 93.66666412353516 0 l 0,-44.708841297205964" transform="translate(-46.83333206176758,-33.06326194580895)"></path><g class="label" style="" transform="translate(0, -9.5)"><rect></rect><text style=""><tspan xml:space="preserve" dy="1em" x="0" class="row">Posts Table</tspan></text></g></g><g class="node default default flowchart-label" id="flowchart-engagement_table-1255" label-offset-y="13.435919749800282" data-node="true" data-id="engagement_table" transform="translate(936.1666717529297, 272.53343963623047)"><path style="" d="M 0,13.435919749800282 a 72.61666870117188,13.435919749800282 0,0,0 145.23333740234375 0 a 72.61666870117188,13.435919749800282 0,0,0 -145.23333740234375 0 l 0,47.435919749800284 a 72.61666870117188,13.435919749800282 0,0,0 145.23333740234375 0 l 0,-47.435919749800284" transform="translate(-72.61666870117188,-37.15387962470042)"></path><g class="label" style="" transform="translate(0, -9.5)"><rect></rect><text style=""><tspan xml:space="preserve" dy="1em" x="0" class="row">Engagement Table</tspan></text></g></g><g class="node default default flowchart-label" id="flowchart-routes-1256" data-node="true" data-id="routes" transform="translate(1316.8916664123535, 134.6897792816162)"><rect class="basic label-container" style="" rx="0" ry="0" x="-31.28333282470703" y="-17" width="62.56666564941406" height="34"></rect><g class="label" style="" transform="translate(0, -9.5)"><rect></rect><text style=""><tspan xml:space="preserve" dy="1em" x="0" class="row">Routes</tspan></text></g></g><g class="node default default flowchart-label" id="flowchart-api_engagement-1257" data-node="true" data-id="api_engagement" transform="translate(1136.650001525879, 272.53343963623047)"><polygon points="-11.333333333333334,0 127.39999898274739,0 144.3999989827474,-34 5.666666666666667,-34" class="label-container" transform="translate(-66.53333282470703,17)" style=""></polygon><g class="label" style="" transform="translate(0, -9.5)"><rect></rect><text style=""><tspan xml:space="preserve" dy="1em" x="0" class="row">api/engagement</tspan></text></g></g><g class="node default default flowchart-label" id="flowchart-api_posts-1258" data-node="true" data-id="api_posts" transform="translate(1316.8916664123535, 272.53343963623047)"><polygon points="-11.333333333333334,0 76.41666920979817,0 93.41666920979817,-34 5.666666666666667,-34" class="label-container" transform="translate(-41.04166793823242,17)" style=""></polygon><g class="label" style="" transform="translate(0, -9.5)"><rect></rect><text style=""><tspan xml:space="preserve" dy="1em" x="0" class="row">api/posts</tspan></text></g></g><g class="node default default flowchart-label" id="flowchart-api_users-1259" data-node="true" data-id="api_users" transform="translate(1471.5666732788086, 272.53343963623047)"><polygon points="-11.333333333333334,0 76.26666768391927,0 93.26666768391927,-34 5.666666666666667,-34" class="label-container" transform="translate(-40.96666717529297,17)" style=""></polygon><g class="label" style="" transform="translate(0, -9.5)"><rect></rect><text style=""><tspan xml:space="preserve" dy="1em" x="0" class="row">api/users</tspan></text></g></g><g class="node default default flowchart-label" id="flowchart-middleware-1260" data-node="true" data-id="middleware" transform="translate(1732.275011062622, 134.6897792816162)"><rect class="basic label-container" style="" rx="0" ry="0" x="-48.724998474121094" y="-17" width="97.44999694824219" height="34"></rect><g class="label" style="" transform="translate(0, -9.5)"><rect></rect><text style=""><tspan xml:space="preserve" dy="1em" x="0" class="row">Middleware</tspan></text></g></g><g class="node default default flowchart-label" id="flowchart-auth_middleware-1261" data-node="true" data-id="auth_middleware" transform="translate(1641.6416778564453, 272.53343963623047)"><rect class="basic label-container" style="" rx="0" ry="0" x="-67.7750015258789" y="-17" width="135.5500030517578" height="34"></rect><g class="label" style="" transform="translate(0, -9.5)"><rect></rect><text style=""><tspan xml:space="preserve" dy="1em" x="0" class="row">Auth Middleware</tspan></text></g></g><g class="node default default flowchart-label" id="flowchart-log_middleware-1262" data-node="true" data-id="log_middleware" transform="translate(1822.9083442687988, 272.53343963623047)"><rect class="basic label-container" style="" rx="0" ry="0" x="-63.49166488647461" y="-17" width="126.98332977294922" height="34"></rect><g class="label" style="" transform="translate(0, -9.5)"><rect></rect><text style=""><tspan xml:space="preserve" dy="1em" x="0" class="row">Log Middleware</tspan></text></g></g><g class="node default default flowchart-label" id="flowchart-database-1263" label-offset-y="9.793187347931873" data-node="true" data-id="database" transform="translate(1871.2500095367432, 134.6897792816162)"><path style="" d="M 0,9.793187347931873 a 40.25,9.793187347931873 0,0,0 80.5 0 a 40.25,9.793187347931873 0,0,0 -80.5 0 l 0,43.79318734793188 a 40.25,9.793187347931873 0,0,0 80.5 0 l 0,-43.79318734793188" transform="translate(-40.25,-31.68978102189781)"></path><g class="label" style="" transform="translate(0, -9.5)"><rect></rect><text style=""><tspan xml:space="preserve" dy="1em" x="0" class="row">Database</tspan></text></g></g></g></g></g></svg>