<svg id="SVGID" width="100%" xmlns="http://www.w3.org/2000/svg" style="max-width: 486.375px;" viewBox="-18.3749942779541 0 486.375 812.800048828125" role="graphics-document document" aria-roledescription="er"><style>#SVGID{font-family:"trebuchet ms",verdana,arial,sans-serif;font-size:16px;fill:#000000;}#SVGID .error-icon{fill:#552222;}#SVGID .error-text{fill:#552222;stroke:#552222;}#SVGID .edge-thickness-normal{stroke-width:2px;}#SVGID .edge-thickness-thick{stroke-width:3.5px;}#SVGID .edge-pattern-solid{stroke-dasharray:0;}#SVGID .edge-pattern-dashed{stroke-dasharray:3;}#SVGID .edge-pattern-dotted{stroke-dasharray:2;}#SVGID .marker{fill:#666;stroke:#666;}#SVGID .marker.cross{stroke:#666;}#SVGID svg{font-family:"trebuchet ms",verdana,arial,sans-serif;font-size:16px;}#SVGID .entityBox{fill:#eee;stroke:#999;}#SVGID .attributeBoxOdd{fill:#ffffff;stroke:#999;}#SVGID .attributeBoxEven{fill:#f2f2f2;stroke:#999;}#SVGID .relationshipLabelBox{fill:hsl(-160, 0%, 93.3333333333%);opacity:0.7;background-color:hsl(-160, 0%, 93.3333333333%);}#SVGID .relationshipLabelBox rect{opacity:0.5;}#SVGID .relationshipLine{stroke:#666;}#SVGID .entityTitleText{text-anchor:middle;font-size:18px;fill:#000000;}#SVGID #MD_PARENT_START{fill:#f5f5f5!important;stroke:#666!important;stroke-width:1;}#SVGID #MD_PARENT_END{fill:#f5f5f5!important;stroke:#666!important;stroke-width:1;}#SVGID :root{--mermaid-font-family:"trebuchet ms",verdana,arial,sans-serif;}</style><g></g><defs><marker id="MD_PARENT_START" refX="0" refY="7" markerWidth="190" markerHeight="240" orient="auto"><path d="M 18,7 L9,13 L1,7 L9,1 Z"></path></marker></defs><defs><marker id="MD_PARENT_END" refX="19" refY="7" markerWidth="20" markerHeight="28" orient="auto"><path d="M 18,7 L9,13 L1,7 L9,1 Z"></path></marker></defs><defs><marker id="ONLY_ONE_START" refX="0" refY="9" markerWidth="18" markerHeight="18" orient="auto"><path stroke="gray" fill="none" d="M9,0 L9,18 M15,0 L15,18"></path></marker></defs><defs><marker id="ONLY_ONE_END" refX="18" refY="9" markerWidth="18" markerHeight="18" orient="auto"><path stroke="gray" fill="none" d="M3,0 L3,18 M9,0 L9,18"></path></marker></defs><defs><marker id="ZERO_OR_ONE_START" refX="0" refY="9" markerWidth="30" markerHeight="18" orient="auto"><circle stroke="gray" fill="white" cx="21" cy="9" r="6"></circle><path stroke="gray" fill="none" d="M9,0 L9,18"></path></marker></defs><defs><marker id="ZERO_OR_ONE_END" refX="30" refY="9" markerWidth="30" markerHeight="18" orient="auto"><circle stroke="gray" fill="white" cx="9" cy="9" r="6"></circle><path stroke="gray" fill="none" d="M21,0 L21,18"></path></marker></defs><defs><marker id="ONE_OR_MORE_START" refX="18" refY="18" markerWidth="45" markerHeight="36" orient="auto"><path stroke="gray" fill="none" d="M0,18 Q 18,0 36,18 Q 18,36 0,18 M42,9 L42,27"></path></marker></defs><defs><marker id="ONE_OR_MORE_END" refX="27" refY="18" markerWidth="45" markerHeight="36" orient="auto"><path stroke="gray" fill="none" d="M3,9 L3,27 M9,18 Q27,0 45,18 Q27,36 9,18"></path></marker></defs><defs><marker id="ZERO_OR_MORE_START" refX="18" refY="18" markerWidth="57" markerHeight="36" orient="auto"><circle stroke="gray" fill="white" cx="48" cy="18" r="6"></circle><path stroke="gray" fill="none" d="M0,18 Q18,0 36,18 Q18,36 0,18"></path></marker></defs><defs><marker id="ZERO_OR_MORE_END" refX="39" refY="18" markerWidth="57" markerHeight="36" orient="auto"><circle stroke="gray" fill="white" cx="9" cy="18" r="6"></circle><path stroke="gray" fill="none" d="M21,18 Q39,0 57,18 Q39,36 21,18"></path></marker></defs><path class="er relationshipLine" d="M154.135,345.6L160.508,353.933C166.882,362.267,179.628,378.933,186.002,395.6C192.375,412.267,192.375,428.933,192.375,437.267L192.375,445.6" style="stroke: gray; fill: none;" marker-end="url(#ZERO_OR_MORE_END)" marker-start="url(#ONLY_ONE_START)"></path><path class="er relationshipLine" d="M67.865,345.6L61.492,353.933C55.118,362.267,42.372,378.933,35.998,405C29.625,431.067,29.625,466.533,29.625,502C29.625,537.467,29.625,572.933,35.411,599C41.197,625.067,52.769,641.733,58.555,650.067L64.341,658.4" style="stroke: gray; fill: none;" marker-end="url(#ZERO_OR_MORE_END)" marker-start="url(#ONLY_ONE_START)"></path><path class="er relationshipLine" d="M192.375,558.4L192.375,566.733C192.375,575.067,192.375,591.733,186.589,608.4C180.803,625.067,169.231,641.733,163.445,650.067L157.659,658.4" style="stroke: gray; fill: none;" marker-end="url(#ZERO_OR_MORE_END)" marker-start="url(#ONLY_ONE_START)"></path><path class="er relationshipLine" d="M375,121.7L375,131.883C375,142.067,375,162.433,375,184.65C375,206.867,375,230.933,375,242.967L375,255" style="stroke: gray; fill: none;" marker-end="url(#ZERO_OR_MORE_END)" marker-start="url(#ONLY_ONE_START)"></path><path class="er relationshipLine" d="M111,132.8L111,141.133C111,149.467,111,166.133,111,182.8C111,199.467,111,216.133,111,224.467L111,232.8" style="stroke: gray; fill: none;" marker-end="url(#ZERO_OR_MORE_END)" marker-start="url(#ONLY_ONE_START)"></path><g id="entity-USERS-1e82e395-936c-57a7-8ba9-b08f03574b93" transform="translate(46.75,232.8000030517578 )"><rect class="er entityBox" x="0" y="0" width="128.5" height="112.79999923706055"></rect><text class="er entityLabel" id="text-entity-USERS-1e82e395-936c-57a7-8ba9-b08f03574b93" x="0" y="0" style="dominant-baseline: middle; text-anchor: middle; font-size: 12px;" transform="translate(64.25,12)">USERS</text><rect class="er attributeBoxOdd" x="0" y="24" width="42" height="22.199999809265137"></rect><text class="er entityLabel" id="text-entity-USERS-1e82e395-936c-57a7-8ba9-b08f03574b93-attr-1-type" x="0" y="0" style="dominant-baseline: middle; font-size: 10.2px;" transform="translate(5,35.09999990463257)">string</text><rect class="er attributeBoxOdd" x="42" y="24" width="58.5" height="22.199999809265137"></rect><text class="er entityLabel" id="text-entity-USERS-1e82e395-936c-57a7-8ba9-b08f03574b93-attr-1-name" x="0" y="0" style="dominant-baseline: middle; font-size: 10.2px;" transform="translate(47,35.09999990463257)">userID</text><rect class="er attributeBoxOdd" x="100.5" y="24" width="28" height="22.199999809265137"></rect><text class="er entityLabel" id="text-entity-USERS-1e82e395-936c-57a7-8ba9-b08f03574b93-attr-1-key" x="0" y="0" style="dominant-baseline: middle; font-size: 10.2px;" transform="translate(105.5,35.09999990463257)">PK</text><rect class="er attributeBoxEven" x="0" y="46.19999980926514" width="42" height="22.199999809265137"></rect><text class="er entityLabel" id="text-entity-USERS-1e82e395-936c-57a7-8ba9-b08f03574b93-attr-2-type" x="0" y="0" style="dominant-baseline: middle; font-size: 10.2px;" transform="translate(5,57.299999713897705)">string</text><rect class="er attributeBoxEven" x="42" y="46.19999980926514" width="58.5" height="22.199999809265137"></rect><text class="er entityLabel" id="text-entity-USERS-1e82e395-936c-57a7-8ba9-b08f03574b93-attr-2-name" x="0" y="0" style="dominant-baseline: middle; font-size: 10.2px;" transform="translate(47,57.299999713897705)">username</text><rect class="er attributeBoxEven" x="100.5" y="46.19999980926514" width="28" height="22.199999809265137"></rect><text class="er entityLabel" id="text-entity-USERS-1e82e395-936c-57a7-8ba9-b08f03574b93-attr-2-key" x="0" y="0" style="dominant-baseline: middle; font-size: 10.2px;" transform="translate(105.5,57.299999713897705)"></text><rect class="er attributeBoxOdd" x="0" y="68.39999961853027" width="42" height="22.199999809265137"></rect><text class="er entityLabel" id="text-entity-USERS-1e82e395-936c-57a7-8ba9-b08f03574b93-attr-3-type" x="0" y="0" style="dominant-baseline: middle; font-size: 10.2px;" transform="translate(5,79.49999952316284)">string</text><rect class="er attributeBoxOdd" x="42" y="68.39999961853027" width="58.5" height="22.199999809265137"></rect><text class="er entityLabel" id="text-entity-USERS-1e82e395-936c-57a7-8ba9-b08f03574b93-attr-3-name" x="0" y="0" style="dominant-baseline: middle; font-size: 10.2px;" transform="translate(47,79.49999952316284)">email</text><rect class="er attributeBoxOdd" x="100.5" y="68.39999961853027" width="28" height="22.199999809265137"></rect><text class="er entityLabel" id="text-entity-USERS-1e82e395-936c-57a7-8ba9-b08f03574b93-attr-3-key" x="0" y="0" style="dominant-baseline: middle; font-size: 10.2px;" transform="translate(105.5,79.49999952316284)">UK</text><rect class="er attributeBoxEven" x="0" y="90.59999942779541" width="42" height="22.199999809265137"></rect><text class="er entityLabel" id="text-entity-USERS-1e82e395-936c-57a7-8ba9-b08f03574b93-attr-4-type" x="0" y="0" style="dominant-baseline: middle; font-size: 10.2px;" transform="translate(5,101.69999933242798)">string</text><rect class="er attributeBoxEven" x="42" y="90.59999942779541" width="58.5" height="22.199999809265137"></rect><text class="er entityLabel" id="text-entity-USERS-1e82e395-936c-57a7-8ba9-b08f03574b93-attr-4-name" x="0" y="0" style="dominant-baseline: middle; font-size: 10.2px;" transform="translate(47,101.69999933242798)">password</text><rect class="er attributeBoxEven" x="100.5" y="90.59999942779541" width="28" height="22.199999809265137"></rect><text class="er entityLabel" id="text-entity-USERS-1e82e395-936c-57a7-8ba9-b08f03574b93-attr-4-key" x="0" y="0" style="dominant-baseline: middle; font-size: 10.2px;" transform="translate(105.5,101.69999933242798)"></text></g><g id="entity-POSTS-8b9e29bd-1bb5-5e7b-b4e1-8fd7a8ad1a35" transform="translate(129.625,445.6000061035156 )"><rect class="er entityBox" x="0" y="0" width="125.5" height="112.79999923706055"></rect><text class="er entityLabel" id="text-entity-POSTS-8b9e29bd-1bb5-5e7b-b4e1-8fd7a8ad1a35" x="0" y="0" style="dominant-baseline: middle; text-anchor: middle; font-size: 12px;" transform="translate(62.75,12)">POSTS</text><rect class="er attributeBoxOdd" x="0" y="24" width="42" height="22.199999809265137"></rect><text class="er entityLabel" id="text-entity-POSTS-8b9e29bd-1bb5-5e7b-b4e1-8fd7a8ad1a35-attr-1-type" x="0" y="0" style="dominant-baseline: middle; font-size: 10.2px;" transform="translate(5,35.09999990463257)">string</text><rect class="er attributeBoxOdd" x="42" y="24" width="55.5" height="22.199999809265137"></rect><text class="er entityLabel" id="text-entity-POSTS-8b9e29bd-1bb5-5e7b-b4e1-8fd7a8ad1a35-attr-1-name" x="0" y="0" style="dominant-baseline: middle; font-size: 10.2px;" transform="translate(47,35.09999990463257)">postID</text><rect class="er attributeBoxOdd" x="97.5" y="24" width="28" height="22.199999809265137"></rect><text class="er entityLabel" id="text-entity-POSTS-8b9e29bd-1bb5-5e7b-b4e1-8fd7a8ad1a35-attr-1-key" x="0" y="0" style="dominant-baseline: middle; font-size: 10.2px;" transform="translate(102.5,35.09999990463257)">PK</text><rect class="er attributeBoxEven" x="0" y="46.19999980926514" width="42" height="22.199999809265137"></rect><text class="er entityLabel" id="text-entity-POSTS-8b9e29bd-1bb5-5e7b-b4e1-8fd7a8ad1a35-attr-2-type" x="0" y="0" style="dominant-baseline: middle; font-size: 10.2px;" transform="translate(5,57.299999713897705)">string</text><rect class="er attributeBoxEven" x="42" y="46.19999980926514" width="55.5" height="22.199999809265137"></rect><text class="er entityLabel" id="text-entity-POSTS-8b9e29bd-1bb5-5e7b-b4e1-8fd7a8ad1a35-attr-2-name" x="0" y="0" style="dominant-baseline: middle; font-size: 10.2px;" transform="translate(47,57.299999713897705)">content</text><rect class="er attributeBoxEven" x="97.5" y="46.19999980926514" width="28" height="22.199999809265137"></rect><text class="er entityLabel" id="text-entity-POSTS-8b9e29bd-1bb5-5e7b-b4e1-8fd7a8ad1a35-attr-2-key" x="0" y="0" style="dominant-baseline: middle; font-size: 10.2px;" transform="translate(102.5,57.299999713897705)"></text><rect class="er attributeBoxOdd" x="0" y="68.39999961853027" width="42" height="22.199999809265137"></rect><text class="er entityLabel" id="text-entity-POSTS-8b9e29bd-1bb5-5e7b-b4e1-8fd7a8ad1a35-attr-3-type" x="0" y="0" style="dominant-baseline: middle; font-size: 10.2px;" transform="translate(5,79.49999952316284)">date</text><rect class="er attributeBoxOdd" x="42" y="68.39999961853027" width="55.5" height="22.199999809265137"></rect><text class="er entityLabel" id="text-entity-POSTS-8b9e29bd-1bb5-5e7b-b4e1-8fd7a8ad1a35-attr-3-name" x="0" y="0" style="dominant-baseline: middle; font-size: 10.2px;" transform="translate(47,79.49999952316284)">postDate</text><rect class="er attributeBoxOdd" x="97.5" y="68.39999961853027" width="28" height="22.199999809265137"></rect><text class="er entityLabel" id="text-entity-POSTS-8b9e29bd-1bb5-5e7b-b4e1-8fd7a8ad1a35-attr-3-key" x="0" y="0" style="dominant-baseline: middle; font-size: 10.2px;" transform="translate(102.5,79.49999952316284)"></text><rect class="er attributeBoxEven" x="0" y="90.59999942779541" width="42" height="22.199999809265137"></rect><text class="er entityLabel" id="text-entity-POSTS-8b9e29bd-1bb5-5e7b-b4e1-8fd7a8ad1a35-attr-4-type" x="0" y="0" style="dominant-baseline: middle; font-size: 10.2px;" transform="translate(5,101.69999933242798)">string</text><rect class="er attributeBoxEven" x="42" y="90.59999942779541" width="55.5" height="22.199999809265137"></rect><text class="er entityLabel" id="text-entity-POSTS-8b9e29bd-1bb5-5e7b-b4e1-8fd7a8ad1a35-attr-4-name" x="0" y="0" style="dominant-baseline: middle; font-size: 10.2px;" transform="translate(47,101.69999933242798)">userID</text><rect class="er attributeBoxEven" x="97.5" y="90.59999942779541" width="28" height="22.199999809265137"></rect><text class="er entityLabel" id="text-entity-POSTS-8b9e29bd-1bb5-5e7b-b4e1-8fd7a8ad1a35-attr-4-key" x="0" y="0" style="dominant-baseline: middle; font-size: 10.2px;" transform="translate(102.5,101.69999933242798)">FK</text></g><g id="entity-ENGAGEMENT-9b7aa530-80fb-59ba-ba75-b14f44638958" transform="translate(37.5,658.4000091552734 )"><rect class="er entityBox" x="0" y="0" width="147" height="134.39999961853027"></rect><text class="er entityLabel" id="text-entity-ENGAGEMENT-9b7aa530-80fb-59ba-ba75-b14f44638958" x="0" y="0" style="dominant-baseline: middle; text-anchor: middle; font-size: 12px;" transform="translate(73.5,12)">ENGAGEMENT</text><rect class="er attributeBoxOdd" x="0" y="24" width="42" height="22.199999809265137"></rect><text class="er entityLabel" id="text-entity-ENGAGEMENT-9b7aa530-80fb-59ba-ba75-b14f44638958-attr-1-type" x="0" y="0" style="dominant-baseline: middle; font-size: 10.2px;" transform="translate(5,35.09999990463257)">string</text><rect class="er attributeBoxOdd" x="42" y="24" width="77" height="22.199999809265137"></rect><text class="er entityLabel" id="text-entity-ENGAGEMENT-9b7aa530-80fb-59ba-ba75-b14f44638958-attr-1-name" x="0" y="0" style="dominant-baseline: middle; font-size: 10.2px;" transform="translate(47,35.09999990463257)">engagementID</text><rect class="er attributeBoxOdd" x="119" y="24" width="28" height="22.199999809265137"></rect><text class="er entityLabel" id="text-entity-ENGAGEMENT-9b7aa530-80fb-59ba-ba75-b14f44638958-attr-1-key" x="0" y="0" style="dominant-baseline: middle; font-size: 10.2px;" transform="translate(124,35.09999990463257)">PK</text><rect class="er attributeBoxEven" x="0" y="46.19999980926514" width="42" height="22.199999809265137"></rect><text class="er entityLabel" id="text-entity-ENGAGEMENT-9b7aa530-80fb-59ba-ba75-b14f44638958-attr-2-type" x="0" y="0" style="dominant-baseline: middle; font-size: 10.2px;" transform="translate(5,57.299999713897705)">string</text><rect class="er attributeBoxEven" x="42" y="46.19999980926514" width="77" height="22.199999809265137"></rect><text class="er entityLabel" id="text-entity-ENGAGEMENT-9b7aa530-80fb-59ba-ba75-b14f44638958-attr-2-name" x="0" y="0" style="dominant-baseline: middle; font-size: 10.2px;" transform="translate(47,57.299999713897705)">postID</text><rect class="er attributeBoxEven" x="119" y="46.19999980926514" width="28" height="22.199999809265137"></rect><text class="er entityLabel" id="text-entity-ENGAGEMENT-9b7aa530-80fb-59ba-ba75-b14f44638958-attr-2-key" x="0" y="0" style="dominant-baseline: middle; font-size: 10.2px;" transform="translate(124,57.299999713897705)">FK</text><rect class="er attributeBoxOdd" x="0" y="68.39999961853027" width="42" height="22"></rect><text class="er entityLabel" id="text-entity-ENGAGEMENT-9b7aa530-80fb-59ba-ba75-b14f44638958-attr-3-type" x="0" y="0" style="dominant-baseline: middle; font-size: 10.2px;" transform="translate(5,79.39999961853027)">int</text><rect class="er attributeBoxOdd" x="42" y="68.39999961853027" width="77" height="22"></rect><text class="er entityLabel" id="text-entity-ENGAGEMENT-9b7aa530-80fb-59ba-ba75-b14f44638958-attr-3-name" x="0" y="0" style="dominant-baseline: middle; font-size: 10.2px;" transform="translate(47,79.39999961853027)">likes</text><rect class="er attributeBoxOdd" x="119" y="68.39999961853027" width="28" height="22"></rect><text class="er entityLabel" id="text-entity-ENGAGEMENT-9b7aa530-80fb-59ba-ba75-b14f44638958-attr-3-key" x="0" y="0" style="dominant-baseline: middle; font-size: 10.2px;" transform="translate(124,79.39999961853027)"></text><rect class="er attributeBoxEven" x="0" y="90.39999961853027" width="42" height="22"></rect><text class="er entityLabel" id="text-entity-ENGAGEMENT-9b7aa530-80fb-59ba-ba75-b14f44638958-attr-4-type" x="0" y="0" style="dominant-baseline: middle; font-size: 10.2px;" transform="translate(5,101.39999961853027)">int</text><rect class="er attributeBoxEven" x="42" y="90.39999961853027" width="77" height="22"></rect><text class="er entityLabel" id="text-entity-ENGAGEMENT-9b7aa530-80fb-59ba-ba75-b14f44638958-attr-4-name" x="0" y="0" style="dominant-baseline: middle; font-size: 10.2px;" transform="translate(47,101.39999961853027)">shares</text><rect class="er attributeBoxEven" x="119" y="90.39999961853027" width="28" height="22"></rect><text class="er entityLabel" id="text-entity-ENGAGEMENT-9b7aa530-80fb-59ba-ba75-b14f44638958-attr-4-key" x="0" y="0" style="dominant-baseline: middle; font-size: 10.2px;" transform="translate(124,101.39999961853027)"></text><rect class="er attributeBoxOdd" x="0" y="112.39999961853027" width="42" height="22"></rect><text class="er entityLabel" id="text-entity-ENGAGEMENT-9b7aa530-80fb-59ba-ba75-b14f44638958-attr-5-type" x="0" y="0" style="dominant-baseline: middle; font-size: 10.2px;" transform="translate(5,123.39999961853027)">int</text><rect class="er attributeBoxOdd" x="42" y="112.39999961853027" width="77" height="22"></rect><text class="er entityLabel" id="text-entity-ENGAGEMENT-9b7aa530-80fb-59ba-ba75-b14f44638958-attr-5-name" x="0" y="0" style="dominant-baseline: middle; font-size: 10.2px;" transform="translate(47,123.39999961853027)">comments</text><rect class="er attributeBoxOdd" x="119" y="112.39999961853027" width="28" height="22"></rect><text class="er entityLabel" id="text-entity-ENGAGEMENT-9b7aa530-80fb-59ba-ba75-b14f44638958-attr-5-key" x="0" y="0" style="dominant-baseline: middle; font-size: 10.2px;" transform="translate(124,123.39999961853027)"></text></g><g id="entity-DEPLOYMENT-8b5a7a91-09a1-5d94-a371-b66c643d0c2f" transform="translate(302,31.10000228881836 )"><rect class="er entityBox" x="0" y="0" width="146" height="90.59999942779541"></rect><text class="er entityLabel" id="text-entity-DEPLOYMENT-8b5a7a91-09a1-5d94-a371-b66c643d0c2f" x="0" y="0" style="dominant-baseline: middle; text-anchor: middle; font-size: 12px;" transform="translate(73,12)">DEPLOYMENT</text><rect class="er attributeBoxOdd" x="0" y="24" width="42" height="22.199999809265137"></rect><text class="er entityLabel" id="text-entity-DEPLOYMENT-8b5a7a91-09a1-5d94-a371-b66c643d0c2f-attr-1-type" x="0" y="0" style="dominant-baseline: middle; font-size: 10.2px;" transform="translate(5,35.09999990463257)">string</text><rect class="er attributeBoxOdd" x="42" y="24" width="76" height="22.199999809265137"></rect><text class="er entityLabel" id="text-entity-DEPLOYMENT-8b5a7a91-09a1-5d94-a371-b66c643d0c2f-attr-1-name" x="0" y="0" style="dominant-baseline: middle; font-size: 10.2px;" transform="translate(47,35.09999990463257)">deploymentID</text><rect class="er attributeBoxOdd" x="118" y="24" width="28" height="22.199999809265137"></rect><text class="er entityLabel" id="text-entity-DEPLOYMENT-8b5a7a91-09a1-5d94-a371-b66c643d0c2f-attr-1-key" x="0" y="0" style="dominant-baseline: middle; font-size: 10.2px;" transform="translate(123,35.09999990463257)">PK</text><rect class="er attributeBoxEven" x="0" y="46.19999980926514" width="42" height="22.199999809265137"></rect><text class="er entityLabel" id="text-entity-DEPLOYMENT-8b5a7a91-09a1-5d94-a371-b66c643d0c2f-attr-2-type" x="0" y="0" style="dominant-baseline: middle; font-size: 10.2px;" transform="translate(5,57.299999713897705)">string</text><rect class="er attributeBoxEven" x="42" y="46.19999980926514" width="76" height="22.199999809265137"></rect><text class="er entityLabel" id="text-entity-DEPLOYMENT-8b5a7a91-09a1-5d94-a371-b66c643d0c2f-attr-2-name" x="0" y="0" style="dominant-baseline: middle; font-size: 10.2px;" transform="translate(47,57.299999713897705)">method</text><rect class="er attributeBoxEven" x="118" y="46.19999980926514" width="28" height="22.199999809265137"></rect><text class="er entityLabel" id="text-entity-DEPLOYMENT-8b5a7a91-09a1-5d94-a371-b66c643d0c2f-attr-2-key" x="0" y="0" style="dominant-baseline: middle; font-size: 10.2px;" transform="translate(123,57.299999713897705)"></text><rect class="er attributeBoxOdd" x="0" y="68.39999961853027" width="42" height="22.199999809265137"></rect><text class="er entityLabel" id="text-entity-DEPLOYMENT-8b5a7a91-09a1-5d94-a371-b66c643d0c2f-attr-3-type" x="0" y="0" style="dominant-baseline: middle; font-size: 10.2px;" transform="translate(5,79.49999952316284)">string</text><rect class="er attributeBoxOdd" x="42" y="68.39999961853027" width="76" height="22.199999809265137"></rect><text class="er entityLabel" id="text-entity-DEPLOYMENT-8b5a7a91-09a1-5d94-a371-b66c643d0c2f-attr-3-name" x="0" y="0" style="dominant-baseline: middle; font-size: 10.2px;" transform="translate(47,79.49999952316284)">platform</text><rect class="er attributeBoxOdd" x="118" y="68.39999961853027" width="28" height="22.199999809265137"></rect><text class="er entityLabel" id="text-entity-DEPLOYMENT-8b5a7a91-09a1-5d94-a371-b66c643d0c2f-attr-3-key" x="0" y="0" style="dominant-baseline: middle; font-size: 10.2px;" transform="translate(123,79.49999952316284)"></text></g><g id="entity-CICD-c501f571-2922-5778-9c76-8896a81be48e" transform="translate(317.5,255.00000381469727 )"><rect class="er entityBox" x="0" y="0" width="115" height="68.39999961853027"></rect><text class="er entityLabel" id="text-entity-CICD-c501f571-2922-5778-9c76-8896a81be48e" x="0" y="0" style="dominant-baseline: middle; text-anchor: middle; font-size: 12px;" transform="translate(57.5,12)">CI_CD</text><rect class="er attributeBoxOdd" x="0" y="24" width="42" height="22.199999809265137"></rect><text class="er entityLabel" id="text-entity-CICD-c501f571-2922-5778-9c76-8896a81be48e-attr-1-type" x="0" y="0" style="dominant-baseline: middle; font-size: 10.2px;" transform="translate(5,35.09999990463257)">string</text><rect class="er attributeBoxOdd" x="42" y="24" width="45" height="22.199999809265137"></rect><text class="er entityLabel" id="text-entity-CICD-c501f571-2922-5778-9c76-8896a81be48e-attr-1-name" x="0" y="0" style="dominant-baseline: middle; font-size: 10.2px;" transform="translate(47,35.09999990463257)">ciCdID</text><rect class="er attributeBoxOdd" x="87" y="24" width="28" height="22.199999809265137"></rect><text class="er entityLabel" id="text-entity-CICD-c501f571-2922-5778-9c76-8896a81be48e-attr-1-key" x="0" y="0" style="dominant-baseline: middle; font-size: 10.2px;" transform="translate(92,35.09999990463257)">PK</text><rect class="er attributeBoxEven" x="0" y="46.19999980926514" width="42" height="22.199999809265137"></rect><text class="er entityLabel" id="text-entity-CICD-c501f571-2922-5778-9c76-8896a81be48e-attr-2-type" x="0" y="0" style="dominant-baseline: middle; font-size: 10.2px;" transform="translate(5,57.299999713897705)">string</text><rect class="er attributeBoxEven" x="42" y="46.19999980926514" width="45" height="22.199999809265137"></rect><text class="er entityLabel" id="text-entity-CICD-c501f571-2922-5778-9c76-8896a81be48e-attr-2-name" x="0" y="0" style="dominant-baseline: middle; font-size: 10.2px;" transform="translate(47,57.299999713897705)">steps</text><rect class="er attributeBoxEven" x="87" y="46.19999980926514" width="28" height="22.199999809265137"></rect><text class="er entityLabel" id="text-entity-CICD-c501f571-2922-5778-9c76-8896a81be48e-attr-2-key" x="0" y="0" style="dominant-baseline: middle; font-size: 10.2px;" transform="translate(92,57.299999713897705)"></text></g><g id="entity-SECURITY-cc682b58-7c00-504a-acc3-0fb5c9435be3" transform="translate(20,20 )"><rect class="er entityBox" x="0" y="0" width="182" height="112.79999923706055"></rect><text class="er entityLabel" id="text-entity-SECURITY-cc682b58-7c00-504a-acc3-0fb5c9435be3" x="0" y="0" style="dominant-baseline: middle; text-anchor: middle; font-size: 12px;" transform="translate(91,12)">SECURITY</text><rect class="er attributeBoxOdd" x="0" y="24" width="42" height="22.199999809265137"></rect><text class="er entityLabel" id="text-entity-SECURITY-cc682b58-7c00-504a-acc3-0fb5c9435be3-attr-1-type" x="0" y="0" style="dominant-baseline: middle; font-size: 10.2px;" transform="translate(5,35.09999990463257)">string</text><rect class="er attributeBoxOdd" x="42" y="24" width="112" height="22.199999809265137"></rect><text class="er entityLabel" id="text-entity-SECURITY-cc682b58-7c00-504a-acc3-0fb5c9435be3-attr-1-name" x="0" y="0" style="dominant-baseline: middle; font-size: 10.2px;" transform="translate(47,35.09999990463257)">securityID</text><rect class="er attributeBoxOdd" x="154" y="24" width="28" height="22.199999809265137"></rect><text class="er entityLabel" id="text-entity-SECURITY-cc682b58-7c00-504a-acc3-0fb5c9435be3-attr-1-key" x="0" y="0" style="dominant-baseline: middle; font-size: 10.2px;" transform="translate(159,35.09999990463257)">PK</text><rect class="er attributeBoxEven" x="0" y="46.19999980926514" width="42" height="22.199999809265137"></rect><text class="er entityLabel" id="text-entity-SECURITY-cc682b58-7c00-504a-acc3-0fb5c9435be3-attr-2-type" x="0" y="0" style="dominant-baseline: middle; font-size: 10.2px;" transform="translate(5,57.299999713897705)">string</text><rect class="er attributeBoxEven" x="42" y="46.19999980926514" width="112" height="22.199999809265137"></rect><text class="er entityLabel" id="text-entity-SECURITY-cc682b58-7c00-504a-acc3-0fb5c9435be3-attr-2-name" x="0" y="0" style="dominant-baseline: middle; font-size: 10.2px;" transform="translate(47,57.299999713897705)">authenticationMethod</text><rect class="er attributeBoxEven" x="154" y="46.19999980926514" width="28" height="22.199999809265137"></rect><text class="er entityLabel" id="text-entity-SECURITY-cc682b58-7c00-504a-acc3-0fb5c9435be3-attr-2-key" x="0" y="0" style="dominant-baseline: middle; font-size: 10.2px;" transform="translate(159,57.299999713897705)"></text><rect class="er attributeBoxOdd" x="0" y="68.39999961853027" width="42" height="22.199999809265137"></rect><text class="er entityLabel" id="text-entity-SECURITY-cc682b58-7c00-504a-acc3-0fb5c9435be3-attr-3-type" x="0" y="0" style="dominant-baseline: middle; font-size: 10.2px;" transform="translate(5,79.49999952316284)">string</text><rect class="er attributeBoxOdd" x="42" y="68.39999961853027" width="112" height="22.199999809265137"></rect><text class="er entityLabel" id="text-entity-SECURITY-cc682b58-7c00-504a-acc3-0fb5c9435be3-attr-3-name" x="0" y="0" style="dominant-baseline: middle; font-size: 10.2px;" transform="translate(47,79.49999952316284)">dataValidation</text><rect class="er attributeBoxOdd" x="154" y="68.39999961853027" width="28" height="22.199999809265137"></rect><text class="er entityLabel" id="text-entity-SECURITY-cc682b58-7c00-504a-acc3-0fb5c9435be3-attr-3-key" x="0" y="0" style="dominant-baseline: middle; font-size: 10.2px;" transform="translate(159,79.49999952316284)"></text><rect class="er attributeBoxEven" x="0" y="90.59999942779541" width="42" height="22.199999809265137"></rect><text class="er entityLabel" id="text-entity-SECURITY-cc682b58-7c00-504a-acc3-0fb5c9435be3-attr-4-type" x="0" y="0" style="dominant-baseline: middle; font-size: 10.2px;" transform="translate(5,101.69999933242798)">string</text><rect class="er attributeBoxEven" x="42" y="90.59999942779541" width="112" height="22.199999809265137"></rect><text class="er entityLabel" id="text-entity-SECURITY-cc682b58-7c00-504a-acc3-0fb5c9435be3-attr-4-name" x="0" y="0" style="dominant-baseline: middle; font-size: 10.2px;" transform="translate(47,101.69999933242798)">encryption</text><rect class="er attributeBoxEven" x="154" y="90.59999942779541" width="28" height="22.199999809265137"></rect><text class="er entityLabel" id="text-entity-SECURITY-cc682b58-7c00-504a-acc3-0fb5c9435be3-attr-4-key" x="0" y="0" style="dominant-baseline: middle; font-size: 10.2px;" transform="translate(159,101.69999933242798)"></text></g><rect class="er relationshipLabelBox" x="160.3330535888672" y="384.5513610839844" width="48" height="14"></rect><text class="er relationshipLabel" id="rel32" x="184.3330535888672" y="391.5513610839844" style="text-anchor: middle; dominant-baseline: middle; font-size: 12px;">creates</text><rect class="er relationshipLabelBox" x="1.6250057220458984" y="494.274658203125" width="56" height="14"></rect><text class="er relationshipLabel" id="rel33" x="29.6250057220459" y="501.274658203125" style="text-anchor: middle; dominant-baseline: middle; font-size: 12px;">interacts</text><rect class="er relationshipLabelBox" x="159.31346130371094" y="604.8445434570312" width="52" height="14"></rect><text class="er relationshipLabel" id="rel34" x="185.31346130371094" y="611.8445434570312" style="text-anchor: middle; dominant-baseline: middle; font-size: 12px;">receives</text><rect class="er relationshipLabelBox" x="353" y="181.35000610351562" width="44" height="14"></rect><text class="er relationshipLabel" id="rel35" x="375" y="188.35000610351562" style="text-anchor: middle; dominant-baseline: middle; font-size: 12px;">utilizes</text><rect class="er relationshipLabelBox" x="84" y="175.8000030517578" width="54" height="14"></rect><text class="er relationshipLabel" id="rel36" x="111" y="182.8000030517578" style="text-anchor: middle; dominant-baseline: middle; font-size: 12px;">protects</text></svg>